<svg xmlns="http://www.w3.org/2000/svg" viewBox="0 0 702.3094010767585 510" width="702.3094010767585" height="510"><g transform="translate(25 25)"><g><rect x="1" y="11" width="650.3094010767585" height="48" fill="white" stroke="black" stroke-width="2" rx="0"/><text x="326.15470053837925" y="35" fill="black" dominant-baseline="middle" text-anchor="middle" font-family="Arial, Helvetica, sans-serif" font-size="24px" font-weight="normal" font-style="normal" width="652.3094010767585">getValues()</text></g><g transform="translate(0 90)"><g><line x1="0" y1="25" x2="650" y2="25" stroke="black" stroke-width="2"/><polyline points="640,19.226497308103745 650,25 640,30.773502691896255" fill="none" stroke="black" stroke-width="2" stroke-linecap="square"/></g><g transform="translate(599 0)"><line x1="0" y1="0" x2="0" y2="50" stroke="black" stroke-width="2"/></g><g transform="translate(126 0)"><ellipse cx="24" cy="25" rx="23" ry="23" fill="hsl(88, 60%, 80%)" stroke="black" stroke-width="2"/><text x="0" y="0" fill="black" font-family="Arial, Helvetica, sans-serif" font-size="18px" font-weight="normal" font-style="normal" dominant-baseline="middle" text-anchor="middle" transform="translate(24 25)">[1,3]</text></g></g><g transform="translate(0 160)"><rect x="1" y="11" width="650.3094010767585" height="48" fill="white" stroke="black" stroke-width="2" rx="0"/><text x="326.15470053837925" y="35" fill="black" dominant-baseline="middle" text-anchor="middle" font-family="Arial, Helvetica, sans-serif" font-size="24px" font-weight="normal" font-style="normal" width="652.3094010767585">mergeAll()</text></g><g transform="translate(0 250)"><g><line x1="0" y1="25" x2="650" y2="25" stroke="black" stroke-width="2"/><polyline points="640,19.226497308103745 650,25 640,30.773502691896255" fill="none" stroke="black" stroke-width="2" stroke-linecap="square"/></g><g transform="translate(599 0)"><line x1="0" y1="0" x2="0" y2="50" stroke="black" stroke-width="2"/></g><g transform="translate(186 0)"><ellipse cx="24" cy="25" rx="23" ry="23" fill="hsl(147, 60%, 80%)" stroke="black" stroke-width="2"/><text x="0" y="0" fill="black" font-family="Arial, Helvetica, sans-serif" font-size="18px" font-weight="normal" font-style="normal" dominant-baseline="middle" text-anchor="middle" transform="translate(24 25)">3</text></g><g transform="translate(156 0)"><ellipse cx="24" cy="25" rx="23" ry="23" fill="hsl(206, 60%, 80%)" stroke="black" stroke-width="2"/><text x="0" y="0" fill="black" font-family="Arial, Helvetica, sans-serif" font-size="18px" font-weight="normal" font-style="normal" dominant-baseline="middle" text-anchor="middle" transform="translate(24 25)">2</text></g><g transform="translate(126 0)"><ellipse cx="24" cy="25" rx="23" ry="23" fill="hsl(35, 60%, 80%)" stroke="black" stroke-width="2"/><text x="0" y="0" fill="black" font-family="Arial, Helvetica, sans-serif" font-size="18px" font-weight="normal" font-style="normal" dominant-baseline="middle" text-anchor="middle" transform="translate(24 25)">1</text></g></g><g transform="translate(0 320)"><rect x="1" y="11" width="650.3094010767585" height="48" fill="white" stroke="black" stroke-width="2" rx="0"/><text x="326.15470053837925" y="35" fill="black" dominant-baseline="middle" text-anchor="middle" font-family="Arial, Helvetica, sans-serif" font-size="24px" font-weight="normal" font-style="normal" width="652.3094010767585">mergeMap(x =&gt; forkJoin([doubleValue(x), tripleValue(x)])</text></g><g transform="translate(0 410)"><g><line x1="0" y1="25" x2="650" y2="25" stroke="black" stroke-width="2"/><polyline points="640,19.226497308103745 650,25 640,30.773502691896255" fill="none" stroke="black" stroke-width="2" stroke-linecap="square"/></g><g transform="translate(599 0)"><line x1="0" y1="0" x2="0" y2="50" stroke="black" stroke-width="2"/></g><g transform="translate(306 0)"><ellipse cx="24" cy="25" rx="23" ry="23" fill="hsl(52, 60%, 80%)" stroke="black" stroke-width="2"/><text x="0" y="0" fill="black" font-family="Arial, Helvetica, sans-serif" font-size="18px" font-weight="normal" font-style="normal" dominant-baseline="middle" text-anchor="middle" transform="translate(24 25)">[6,9]</text></g><g transform="translate(246 0)"><ellipse cx="24" cy="25" rx="23" ry="23" fill="hsl(252, 60%, 80%)" stroke="black" stroke-width="2"/><text x="0" y="0" fill="black" font-family="Arial, Helvetica, sans-serif" font-size="18px" font-weight="normal" font-style="normal" dominant-baseline="middle" text-anchor="middle" transform="translate(24 25)">[4,6]</text></g><g transform="translate(186 0)"><ellipse cx="24" cy="25" rx="23" ry="23" fill="hsl(200, 60%, 80%)" stroke="black" stroke-width="2"/><text x="0" y="0" fill="black" font-family="Arial, Helvetica, sans-serif" font-size="18px" font-weight="normal" font-style="normal" dominant-baseline="middle" text-anchor="middle" transform="translate(24 25)">[2,3]</text></g></g></g></svg>