<svg xmlns="http://www.w3.org/2000/svg" viewBox="0 0 352.3094010767585 440" width="352.3094010767585" height="440"><g transform="translate(25 25)"><g><g><line x1="0" y1="30" x2="240" y2="30" stroke="black" stroke-width="2"/><polyline points="230,24.226497308103745 240,30 230,35.773502691896255" fill="none" stroke="black" stroke-width="2" stroke-linecap="square"/></g><g transform="translate(179 0)"><line x1="0" y1="5" x2="0" y2="55" stroke="black" stroke-width="2"/></g><g transform="translate(90 0)"><ellipse cx="30" cy="30" rx="29" ry="29" fill="hsl(206, 60%, 80%)" stroke="black" stroke-width="2"/><text x="0" y="0" fill="black" font-family="Arial, Helvetica, sans-serif" font-size="18px" font-weight="normal" font-style="normal" dominant-baseline="middle" text-anchor="middle" transform="translate(30 30)">2</text></g><g><ellipse cx="30" cy="30" rx="29" ry="29" fill="hsl(35, 60%, 80%)" stroke="black" stroke-width="2"/><text x="0" y="0" fill="black" font-family="Arial, Helvetica, sans-serif" font-size="18px" font-weight="normal" font-style="normal" dominant-baseline="middle" text-anchor="middle" transform="translate(30 30)">1</text></g></g><g transform="translate(0 80)"><g><line x1="0" y1="30" x2="300" y2="30" stroke="black" stroke-width="2"/><polyline points="290,24.226497308103745 300,30 290,35.773502691896255" fill="none" stroke="black" stroke-width="2" stroke-linecap="square"/></g><g transform="translate(239 0)"><line x1="0" y1="5" x2="0" y2="55" stroke="black" stroke-width="2"/></g><g transform="translate(150 0)"><ellipse cx="30" cy="30" rx="29" ry="29" fill="hsl(170, 60%, 80%)" stroke="black" stroke-width="2"/><text x="0" y="0" fill="black" font-family="Arial, Helvetica, sans-serif" font-size="18px" font-weight="normal" font-style="normal" dominant-baseline="middle" text-anchor="middle" transform="translate(30 30)">5</text></g><g transform="translate(60 0)"><ellipse cx="30" cy="30" rx="29" ry="29" fill="hsl(117, 60%, 80%)" stroke="black" stroke-width="2"/><text x="0" y="0" fill="black" font-family="Arial, Helvetica, sans-serif" font-size="18px" font-weight="normal" font-style="normal" dominant-baseline="middle" text-anchor="middle" transform="translate(30 30)">4</text></g><g><ellipse cx="30" cy="30" rx="29" ry="29" fill="hsl(147, 60%, 80%)" stroke="black" stroke-width="2"/><text x="0" y="0" fill="black" font-family="Arial, Helvetica, sans-serif" font-size="18px" font-weight="normal" font-style="normal" dominant-baseline="middle" text-anchor="middle" transform="translate(30 30)">3</text></g></g><g transform="translate(0 160)"><g><line x1="0" y1="30" x2="270" y2="30" stroke="black" stroke-width="2"/><polyline points="260,24.226497308103745 270,30 260,35.773502691896255" fill="none" stroke="black" stroke-width="2" stroke-linecap="square"/></g><g transform="translate(209 0)"><line x1="0" y1="5" x2="0" y2="55" stroke="black" stroke-width="2"/></g><g transform="translate(120 0)"><ellipse cx="30" cy="30" rx="29" ry="29" fill="hsl(230, 60%, 80%)" stroke="black" stroke-width="2"/><text x="0" y="0" fill="black" font-family="Arial, Helvetica, sans-serif" font-size="18px" font-weight="normal" font-style="normal" dominant-baseline="middle" text-anchor="middle" transform="translate(30 30)">7</text></g><g transform="translate(60 0)"><ellipse cx="30" cy="30" rx="29" ry="29" fill="hsl(306, 60%, 80%)" stroke="black" stroke-width="2"/><text x="0" y="0" fill="black" font-family="Arial, Helvetica, sans-serif" font-size="18px" font-weight="normal" font-style="normal" dominant-baseline="middle" text-anchor="middle" transform="translate(30 30)">6</text></g></g><g transform="translate(0 240)"><rect x="1" y="11" width="300.3094010767585" height="48" fill="white" stroke="black" stroke-width="2" rx="0"/><text x="151.15470053837925" y="35" fill="black" dominant-baseline="middle" text-anchor="middle" font-family="Arial, Helvetica, sans-serif" font-size="24px" font-weight="normal" font-style="normal" width="302.3094010767585">forkJoin([a, b, c])</text></g><g transform="translate(0 330)"><g><line x1="0" y1="30" x2="300" y2="30" stroke="black" stroke-width="2"/><polyline points="290,24.226497308103745 300,30 290,35.773502691896255" fill="none" stroke="black" stroke-width="2" stroke-linecap="square"/></g><g transform="translate(239 0)"><line x1="0" y1="5" x2="0" y2="55" stroke="black" stroke-width="2"/></g><g transform="translate(150 0)"><ellipse cx="30" cy="30" rx="29" ry="29" fill="hsl(157, 60%, 80%)" stroke="black" stroke-width="2"/><text x="0" y="0" fill="black" font-family="Arial, Helvetica, sans-serif" font-size="18px" font-weight="normal" font-style="normal" dominant-baseline="middle" text-anchor="middle" transform="translate(30 30)">[2,5,7]</text></g></g></g></svg>