<svg xmlns="http://www.w3.org/2000/svg" viewBox="0 0 612.3094010767585 744.7668598600565" width="612.3094010767585" height="744.7668598600565"><g transform="translate(25 25)"><g><rect x="1" y="11" width="560.3094010767585" height="48" fill="white" stroke="black" stroke-width="2" rx="0"/><text x="281.15470053837925" y="35" fill="black" dominant-baseline="middle" text-anchor="middle" font-family="Arial, Helvetica, sans-serif" font-size="24px" font-weight="normal" font-style="normal" width="562.3094010767585">getValues()</text></g><g transform="translate(0 90)"><g><line x1="0" y1="25" x2="560" y2="25" stroke="black" stroke-width="2"/><polyline points="550,19.226497308103745 560,25 550,30.773502691896255" fill="none" stroke="black" stroke-width="2" stroke-linecap="square"/></g><g transform="translate(509 0)"><line x1="0" y1="0" x2="0" y2="50" stroke="black" stroke-width="2"/></g><g transform="translate(126 0)"><ellipse cx="24" cy="25" rx="23" ry="23" fill="hsl(88, 60%, 80%)" stroke="black" stroke-width="2"/><text x="0" y="0" fill="black" font-family="Arial, Helvetica, sans-serif" font-size="18px" font-weight="normal" font-style="normal" dominant-baseline="middle" text-anchor="middle" transform="translate(24 25)">[1,3]</text></g></g><g transform="translate(0 160)"><rect x="1" y="11" width="560.3094010767585" height="48" fill="white" stroke="black" stroke-width="2" rx="0"/><text x="281.15470053837925" y="35" fill="black" dominant-baseline="middle" text-anchor="middle" font-family="Arial, Helvetica, sans-serif" font-size="24px" font-weight="normal" font-style="normal" width="562.3094010767585">mergeAll()</text></g><g transform="translate(0 250)"><g><line x1="0" y1="25" x2="560" y2="25" stroke="black" stroke-width="2"/><polyline points="550,19.226497308103745 560,25 550,30.773502691896255" fill="none" stroke="black" stroke-width="2" stroke-linecap="square"/></g><g transform="translate(509 0)"><line x1="0" y1="0" x2="0" y2="50" stroke="black" stroke-width="2"/></g><g transform="translate(186 0)"><ellipse cx="24" cy="25" rx="23" ry="23" fill="hsl(147, 60%, 80%)" stroke="black" stroke-width="2"/><text x="0" y="0" fill="black" font-family="Arial, Helvetica, sans-serif" font-size="18px" font-weight="normal" font-style="normal" dominant-baseline="middle" text-anchor="middle" transform="translate(24 25)">3</text></g><g transform="translate(156 0)"><ellipse cx="24" cy="25" rx="23" ry="23" fill="hsl(206, 60%, 80%)" stroke="black" stroke-width="2"/><text x="0" y="0" fill="black" font-family="Arial, Helvetica, sans-serif" font-size="18px" font-weight="normal" font-style="normal" dominant-baseline="middle" text-anchor="middle" transform="translate(24 25)">2</text></g><g transform="translate(126 0)"><ellipse cx="24" cy="25" rx="23" ry="23" fill="hsl(35, 60%, 80%)" stroke="black" stroke-width="2"/><text x="0" y="0" fill="black" font-family="Arial, Helvetica, sans-serif" font-size="18px" font-weight="normal" font-style="normal" dominant-baseline="middle" text-anchor="middle" transform="translate(24 25)">1</text></g></g><g transform="translate(0 320)"><rect x="1" y="11" width="560.3094010767585" height="48" fill="white" stroke="black" stroke-width="2" rx="0"/><text x="281.15470053837925" y="35" fill="black" dominant-baseline="middle" text-anchor="middle" font-family="Arial, Helvetica, sans-serif" font-size="24px" font-weight="normal" font-style="normal" width="562.3094010767585">map(x =&gt; forkJoin([doubleValue(x), tripleValue(x)])</text></g><g transform="translate(0 410)"><g><line x1="0" y1="25" x2="560" y2="25" stroke="black" stroke-width="2"/><polyline points="550,19.226497308103745 560,25 550,30.773502691896255" fill="none" stroke="black" stroke-width="2" stroke-linecap="square"/></g><g transform="translate(509 0)"><line x1="0" y1="0" x2="0" y2="50" stroke="black" stroke-width="2"/></g><g transform="rotate(30 270 25) translate(270 0)"><g><line x1="0" y1="25" x2="153.92304845413264" y2="25" stroke="black" stroke-width="2"/><polyline points="143.92304845413264,19.226497308103745 153.92304845413264,25 143.92304845413264,30.773502691896255" fill="none" stroke="black" stroke-width="2" stroke-linecap="square"/></g><g transform="translate(102.92304845413263 0)"><line x1="0" y1="0" x2="0" y2="50" stroke="black" stroke-width="2"/></g><g transform="translate(45.282032302755084 0)"><ellipse cx="24" cy="25" rx="23" ry="23" fill="hsl(52, 60%, 80%)" stroke="black" stroke-width="2"/><text x="0" y="0" fill="black" font-family="Arial, Helvetica, sans-serif" font-size="18px" font-weight="normal" font-style="normal" dominant-baseline="middle" text-anchor="middle" transform="translate(24 25)">[6,9]</text></g></g><g transform="rotate(30 210 25) translate(210 0)"><g><line x1="0" y1="25" x2="153.92304845413264" y2="25" stroke="black" stroke-width="2"/><polyline points="143.92304845413264,19.226497308103745 153.92304845413264,25 143.92304845413264,30.773502691896255" fill="none" stroke="black" stroke-width="2" stroke-linecap="square"/></g><g transform="translate(102.92304845413263 0)"><line x1="0" y1="0" x2="0" y2="50" stroke="black" stroke-width="2"/></g><g transform="translate(45.282032302755084 0)"><ellipse cx="24" cy="25" rx="23" ry="23" fill="hsl(252, 60%, 80%)" stroke="black" stroke-width="2"/><text x="0" y="0" fill="black" font-family="Arial, Helvetica, sans-serif" font-size="18px" font-weight="normal" font-style="normal" dominant-baseline="middle" text-anchor="middle" transform="translate(24 25)">[4,6]</text></g></g><g transform="rotate(30 150 25) translate(150 0)"><g><line x1="0" y1="25" x2="153.92304845413264" y2="25" stroke="black" stroke-width="2"/><polyline points="143.92304845413264,19.226497308103745 153.92304845413264,25 143.92304845413264,30.773502691896255" fill="none" stroke="black" stroke-width="2" stroke-linecap="square"/></g><g transform="translate(102.92304845413263 0)"><line x1="0" y1="0" x2="0" y2="50" stroke="black" stroke-width="2"/></g><g transform="translate(45.282032302755084 0)"><ellipse cx="24" cy="25" rx="23" ry="23" fill="hsl(200, 60%, 80%)" stroke="black" stroke-width="2"/><text x="0" y="0" fill="black" font-family="Arial, Helvetica, sans-serif" font-size="18px" font-weight="normal" font-style="normal" dominant-baseline="middle" text-anchor="middle" transform="translate(24 25)">[2,3]</text></g></g></g><g transform="translate(0 554.7668598600565)"><rect x="1" y="11" width="560.3094010767585" height="48" fill="white" stroke="black" stroke-width="2" rx="0"/><text x="281.15470053837925" y="35" fill="black" dominant-baseline="middle" text-anchor="middle" font-family="Arial, Helvetica, sans-serif" font-size="24px" font-weight="normal" font-style="normal" width="562.3094010767585">mergeAll()</text></g><g transform="translate(0 644.7668598600565)"><g><line x1="0" y1="25" x2="560" y2="25" stroke="black" stroke-width="2"/><polyline points="550,19.226497308103745 560,25 550,30.773502691896255" fill="none" stroke="black" stroke-width="2" stroke-linecap="square"/></g><g transform="translate(509 0)"><line x1="0" y1="0" x2="0" y2="50" stroke="black" stroke-width="2"/></g><g transform="translate(306 0)"><ellipse cx="24" cy="25" rx="23" ry="23" fill="hsl(52, 60%, 80%)" stroke="black" stroke-width="2"/><text x="0" y="0" fill="black" font-family="Arial, Helvetica, sans-serif" font-size="18px" font-weight="normal" font-style="normal" dominant-baseline="middle" text-anchor="middle" transform="translate(24 25)">[6,9]</text></g><g transform="translate(246 0)"><ellipse cx="24" cy="25" rx="23" ry="23" fill="hsl(252, 60%, 80%)" stroke="black" stroke-width="2"/><text x="0" y="0" fill="black" font-family="Arial, Helvetica, sans-serif" font-size="18px" font-weight="normal" font-style="normal" dominant-baseline="middle" text-anchor="middle" transform="translate(24 25)">[4,6]</text></g><g transform="translate(186 0)"><ellipse cx="24" cy="25" rx="23" ry="23" fill="hsl(200, 60%, 80%)" stroke="black" stroke-width="2"/><text x="0" y="0" fill="black" font-family="Arial, Helvetica, sans-serif" font-size="18px" font-weight="normal" font-style="normal" dominant-baseline="middle" text-anchor="middle" transform="translate(24 25)">[2,3]</text></g></g></g></svg>