<svg xmlns="http://www.w3.org/2000/svg" viewBox="0 0 372.3094010767585 260" width="372.3094010767585" height="260"><g transform="translate(25 25)"><g><g><line x1="0" y1="25" x2="320" y2="25" stroke="white" stroke-width="2"/><polyline points="310,19.226497308103745 320,25 310,30.773502691896255" fill="none" stroke="white" stroke-width="2" stroke-linecap="square"/></g><g transform="translate(269 0)"><line x1="0" y1="0" x2="0" y2="50" stroke="white" stroke-width="2"/></g><g transform="translate(220 0)"><ellipse cx="20" cy="25" rx="19" ry="19" fill="hsl(117, 60%, 20%)" stroke="white" stroke-width="2"/><text x="0" y="0" fill="white" font-family="Arial, Helvetica, sans-serif" font-size="18px" font-weight="normal" font-style="normal" dominant-baseline="middle" text-anchor="middle" transform="translate(20 25)">4</text></g><g transform="translate(160 0)"><ellipse cx="20" cy="25" rx="19" ry="19" fill="hsl(147, 60%, 20%)" stroke="white" stroke-width="2"/><text x="0" y="0" fill="white" font-family="Arial, Helvetica, sans-serif" font-size="18px" font-weight="normal" font-style="normal" dominant-baseline="middle" text-anchor="middle" transform="translate(20 25)">3</text></g><g transform="translate(100 0)"><ellipse cx="20" cy="25" rx="19" ry="19" fill="hsl(206, 60%, 20%)" stroke="white" stroke-width="2"/><text x="0" y="0" fill="white" font-family="Arial, Helvetica, sans-serif" font-size="18px" font-weight="normal" font-style="normal" dominant-baseline="middle" text-anchor="middle" transform="translate(20 25)">2</text></g><g transform="translate(40 0)"><ellipse cx="20" cy="25" rx="19" ry="19" fill="hsl(35, 60%, 20%)" stroke="white" stroke-width="2"/><text x="0" y="0" fill="white" font-family="Arial, Helvetica, sans-serif" font-size="18px" font-weight="normal" font-style="normal" dominant-baseline="middle" text-anchor="middle" transform="translate(20 25)">1</text></g></g><g transform="translate(0 70)"><rect x="1" y="11" width="320.3094010767585" height="48" fill="black" stroke="white" stroke-width="2" rx="0"/><text x="161.15470053837925" y="35" fill="white" dominant-baseline="middle" text-anchor="middle" font-family="Arial, Helvetica, sans-serif" font-size="24px" font-weight="normal" font-style="normal" width="322.3094010767585">map(x =&gt;&#xA0;2x)</text></g><g transform="translate(0 160)"><g><line x1="0" y1="25" x2="320" y2="25" stroke="white" stroke-width="2"/><polyline points="310,19.226497308103745 320,25 310,30.773502691896255" fill="none" stroke="white" stroke-width="2" stroke-linecap="square"/></g><g transform="translate(269 0)"><line x1="0" y1="0" x2="0" y2="50" stroke="white" stroke-width="2"/></g><g transform="translate(220 0)"><ellipse cx="20" cy="25" rx="19" ry="19" fill="hsl(264, 60%, 20%)" stroke="white" stroke-width="2"/><text x="0" y="0" fill="white" font-family="Arial, Helvetica, sans-serif" font-size="18px" font-weight="normal" font-style="normal" dominant-baseline="middle" text-anchor="middle" transform="translate(20 25)">8</text></g><g transform="translate(160 0)"><ellipse cx="20" cy="25" rx="19" ry="19" fill="hsl(306, 60%, 20%)" stroke="white" stroke-width="2"/><text x="0" y="0" fill="white" font-family="Arial, Helvetica, sans-serif" font-size="18px" font-weight="normal" font-style="normal" dominant-baseline="middle" text-anchor="middle" transform="translate(20 25)">6</text></g><g transform="translate(100 0)"><ellipse cx="20" cy="25" rx="19" ry="19" fill="hsl(117, 60%, 20%)" stroke="white" stroke-width="2"/><text x="0" y="0" fill="white" font-family="Arial, Helvetica, sans-serif" font-size="18px" font-weight="normal" font-style="normal" dominant-baseline="middle" text-anchor="middle" transform="translate(20 25)">4</text></g><g transform="translate(40 0)"><ellipse cx="20" cy="25" rx="19" ry="19" fill="hsl(206, 60%, 20%)" stroke="white" stroke-width="2"/><text x="0" y="0" fill="white" font-family="Arial, Helvetica, sans-serif" font-size="18px" font-weight="normal" font-style="normal" dominant-baseline="middle" text-anchor="middle" transform="translate(20 25)">2</text></g></g></g></svg>