<svg xmlns="http://www.w3.org/2000/svg" viewBox="0 0 222.3094010767585 260" width="222.3094010767585" height="260"><g transform="translate(25 25)"><g><g><line x1="0" y1="25" x2="170" y2="25" stroke="black" stroke-width="2"/><polyline points="160,19.226497308103745 170,25 160,30.773502691896255" fill="none" stroke="black" stroke-width="2" stroke-linecap="square"/></g><g transform="translate(119 0)"><line x1="0" y1="0" x2="0" y2="50" stroke="black" stroke-width="2"/></g><g transform="translate(8 0)"><ellipse cx="22" cy="25" rx="21" ry="21" fill="hsl(88, 60%, 80%)" stroke="black" stroke-width="2"/><text x="0" y="0" fill="black" font-family="Arial, Helvetica, sans-serif" font-size="18px" font-weight="normal" font-style="normal" dominant-baseline="middle" text-anchor="middle" transform="translate(22 25)">[1,3]</text></g></g><g transform="translate(0 70)"><rect x="1" y="11" width="170.3094010767585" height="48" fill="white" stroke="black" stroke-width="2" rx="0"/><text x="86.15470053837925" y="35" fill="black" dominant-baseline="middle" text-anchor="middle" font-family="Arial, Helvetica, sans-serif" font-size="24px" font-weight="normal" font-style="normal" width="172.3094010767585">mergeAll()</text></g><g transform="translate(0 160)"><g><line x1="0" y1="25" x2="170" y2="25" stroke="black" stroke-width="2"/><polyline points="160,19.226497308103745 170,25 160,30.773502691896255" fill="none" stroke="black" stroke-width="2" stroke-linecap="square"/></g><g transform="translate(119 0)"><line x1="0" y1="0" x2="0" y2="50" stroke="black" stroke-width="2"/></g><g transform="translate(68 0)"><ellipse cx="22" cy="25" rx="21" ry="21" fill="hsl(147, 60%, 80%)" stroke="black" stroke-width="2"/><text x="0" y="0" fill="black" font-family="Arial, Helvetica, sans-serif" font-size="18px" font-weight="normal" font-style="normal" dominant-baseline="middle" text-anchor="middle" transform="translate(22 25)">3</text></g><g transform="translate(38 0)"><ellipse cx="22" cy="25" rx="21" ry="21" fill="hsl(206, 60%, 80%)" stroke="black" stroke-width="2"/><text x="0" y="0" fill="black" font-family="Arial, Helvetica, sans-serif" font-size="18px" font-weight="normal" font-style="normal" dominant-baseline="middle" text-anchor="middle" transform="translate(22 25)">2</text></g><g transform="translate(8 0)"><ellipse cx="22" cy="25" rx="21" ry="21" fill="hsl(35, 60%, 80%)" stroke="black" stroke-width="2"/><text x="0" y="0" fill="black" font-family="Arial, Helvetica, sans-serif" font-size="18px" font-weight="normal" font-style="normal" dominant-baseline="middle" text-anchor="middle" transform="translate(22 25)">1</text></g></g></g></svg>