<svg xmlns="http://www.w3.org/2000/svg" viewBox="0 0 562.8012701892219 744.7668598600565" width="562.8012701892219" height="744.7668598600565"><g transform="translate(25 25)"><g><rect x="1" y="11" width="510.8012701892219" height="48" fill="black" stroke="white" stroke-width="2" rx="0"/><text x="256.40063509461095" y="35" fill="white" dominant-baseline="middle" text-anchor="middle" font-family="Arial, Helvetica, sans-serif" font-size="24px" font-weight="normal" font-style="normal" width="512.8012701892219">getValues()</text></g><g transform="translate(0 90)"><g><line x1="0" y1="25" x2="200" y2="25" stroke="white" stroke-width="2"/><polyline points="190,19.226497308103745 200,25 190,30.773502691896255" fill="none" stroke="white" stroke-width="2" stroke-linecap="square"/></g><g transform="translate(149 0)"><line x1="0" y1="0" x2="0" y2="50" stroke="white" stroke-width="2"/></g><g transform="translate(38 0)"><ellipse cx="22" cy="25" rx="21" ry="21" fill="hsl(88, 60%, 20%)" stroke="white" stroke-width="2"/><text x="0" y="0" fill="white" font-family="Arial, Helvetica, sans-serif" font-size="18px" font-weight="normal" font-style="normal" dominant-baseline="middle" text-anchor="middle" transform="translate(22 25)">[1,3]</text></g></g><g transform="translate(0 160)"><rect x="1" y="11" width="510.8012701892219" height="48" fill="black" stroke="white" stroke-width="2" rx="0"/><text x="256.40063509461095" y="35" fill="white" dominant-baseline="middle" text-anchor="middle" font-family="Arial, Helvetica, sans-serif" font-size="24px" font-weight="normal" font-style="normal" width="512.8012701892219">???</text></g><g transform="translate(0 250)"><g><line x1="0" y1="25" x2="200" y2="25" stroke="white" stroke-width="2"/><polyline points="190,19.226497308103745 200,25 190,30.773502691896255" fill="none" stroke="white" stroke-width="2" stroke-linecap="square"/></g><g transform="translate(149 0)"><line x1="0" y1="0" x2="0" y2="50" stroke="white" stroke-width="2"/></g><g transform="translate(98 0)"><ellipse cx="22" cy="25" rx="21" ry="21" fill="hsl(147, 60%, 20%)" stroke="white" stroke-width="2"/><text x="0" y="0" fill="white" font-family="Arial, Helvetica, sans-serif" font-size="18px" font-weight="normal" font-style="normal" dominant-baseline="middle" text-anchor="middle" transform="translate(22 25)">3</text></g><g transform="translate(68 0)"><ellipse cx="22" cy="25" rx="21" ry="21" fill="hsl(206, 60%, 20%)" stroke="white" stroke-width="2"/><text x="0" y="0" fill="white" font-family="Arial, Helvetica, sans-serif" font-size="18px" font-weight="normal" font-style="normal" dominant-baseline="middle" text-anchor="middle" transform="translate(22 25)">2</text></g><g transform="translate(38 0)"><ellipse cx="22" cy="25" rx="21" ry="21" fill="hsl(35, 60%, 20%)" stroke="white" stroke-width="2"/><text x="0" y="0" fill="white" font-family="Arial, Helvetica, sans-serif" font-size="18px" font-weight="normal" font-style="normal" dominant-baseline="middle" text-anchor="middle" transform="translate(22 25)">1</text></g></g><g transform="translate(0 320)"><rect x="1" y="11" width="510.8012701892219" height="48" fill="black" stroke="white" stroke-width="2" rx="0"/><text x="256.40063509461095" y="35" fill="white" dominant-baseline="middle" text-anchor="middle" font-family="Arial, Helvetica, sans-serif" font-size="24px" font-weight="normal" font-style="normal" width="512.8012701892219">doubleValue() |&#xA0;tripleValue()</text></g><g transform="translate(0 410)"><g><line x1="0" y1="25" x2="500" y2="25" stroke="white" stroke-width="2"/><polyline points="490,19.226497308103745 500,25 490,30.773502691896255" fill="none" stroke="white" stroke-width="2" stroke-linecap="square"/></g><g transform="translate(449 0)"><line x1="0" y1="0" x2="0" y2="50" stroke="white" stroke-width="2"/></g><g transform="rotate(30 390 25) translate(390 0)"><g><line x1="0" y1="25" x2="153.92304845413264" y2="25" stroke="white" stroke-width="2"/><polyline points="143.92304845413264,19.226497308103745 153.92304845413264,25 143.92304845413264,30.773502691896255" fill="none" stroke="white" stroke-width="2" stroke-linecap="square"/></g><g transform="translate(102.92304845413263 0)"><line x1="0" y1="0" x2="0" y2="50" stroke="white" stroke-width="2"/></g><g transform="translate(47.282032302755084 0)"><ellipse cx="22" cy="25" rx="21" ry="21" fill="hsl(175, 60%, 20%)" stroke="white" stroke-width="2"/><text x="0" y="0" fill="white" font-family="Arial, Helvetica, sans-serif" font-size="18px" font-weight="normal" font-style="normal" dominant-baseline="middle" text-anchor="middle" transform="translate(22 25)">9</text></g></g><g transform="rotate(30 330 25) translate(330 0)"><g><line x1="0" y1="25" x2="153.92304845413264" y2="25" stroke="white" stroke-width="2"/><polyline points="143.92304845413264,19.226497308103745 153.92304845413264,25 143.92304845413264,30.773502691896255" fill="none" stroke="white" stroke-width="2" stroke-linecap="square"/></g><g transform="translate(102.92304845413263 0)"><line x1="0" y1="0" x2="0" y2="50" stroke="white" stroke-width="2"/></g><g transform="translate(47.282032302755084 0)"><ellipse cx="22" cy="25" rx="21" ry="21" fill="hsl(306, 60%, 20%)" stroke="white" stroke-width="2"/><text x="0" y="0" fill="white" font-family="Arial, Helvetica, sans-serif" font-size="18px" font-weight="normal" font-style="normal" dominant-baseline="middle" text-anchor="middle" transform="translate(22 25)">6</text></g></g><g transform="rotate(30 270 25) translate(270 0)"><g><line x1="0" y1="25" x2="153.92304845413264" y2="25" stroke="white" stroke-width="2"/><polyline points="143.92304845413264,19.226497308103745 153.92304845413264,25 143.92304845413264,30.773502691896255" fill="none" stroke="white" stroke-width="2" stroke-linecap="square"/></g><g transform="translate(102.92304845413263 0)"><line x1="0" y1="0" x2="0" y2="50" stroke="white" stroke-width="2"/></g><g transform="translate(47.282032302755084 0)"><ellipse cx="22" cy="25" rx="21" ry="21" fill="hsl(147, 60%, 20%)" stroke="white" stroke-width="2"/><text x="0" y="0" fill="white" font-family="Arial, Helvetica, sans-serif" font-size="18px" font-weight="normal" font-style="normal" dominant-baseline="middle" text-anchor="middle" transform="translate(22 25)">3</text></g></g><g transform="translate(239 0)"><line x1="0" y1="0" x2="0" y2="50" stroke="white" stroke-width="2"/></g><g transform="rotate(30 150 25) translate(150 0)"><g><line x1="0" y1="25" x2="153.92304845413264" y2="25" stroke="white" stroke-width="2"/><polyline points="143.92304845413264,19.226497308103745 153.92304845413264,25 143.92304845413264,30.773502691896255" fill="none" stroke="white" stroke-width="2" stroke-linecap="square"/></g><g transform="translate(102.92304845413263 0)"><line x1="0" y1="0" x2="0" y2="50" stroke="white" stroke-width="2"/></g><g transform="translate(47.282032302755084 0)"><ellipse cx="22" cy="25" rx="21" ry="21" fill="hsl(306, 60%, 20%)" stroke="white" stroke-width="2"/><text x="0" y="0" fill="white" font-family="Arial, Helvetica, sans-serif" font-size="18px" font-weight="normal" font-style="normal" dominant-baseline="middle" text-anchor="middle" transform="translate(22 25)">6</text></g></g><g transform="rotate(30 90 25) translate(90 0)"><g><line x1="0" y1="25" x2="153.92304845413264" y2="25" stroke="white" stroke-width="2"/><polyline points="143.92304845413264,19.226497308103745 153.92304845413264,25 143.92304845413264,30.773502691896255" fill="none" stroke="white" stroke-width="2" stroke-linecap="square"/></g><g transform="translate(102.92304845413263 0)"><line x1="0" y1="0" x2="0" y2="50" stroke="white" stroke-width="2"/></g><g transform="translate(47.282032302755084 0)"><ellipse cx="22" cy="25" rx="21" ry="21" fill="hsl(117, 60%, 20%)" stroke="white" stroke-width="2"/><text x="0" y="0" fill="white" font-family="Arial, Helvetica, sans-serif" font-size="18px" font-weight="normal" font-style="normal" dominant-baseline="middle" text-anchor="middle" transform="translate(22 25)">4</text></g></g><g transform="rotate(30 30 25) translate(30 0)"><g><line x1="0" y1="25" x2="153.92304845413264" y2="25" stroke="white" stroke-width="2"/><polyline points="143.92304845413264,19.226497308103745 153.92304845413264,25 143.92304845413264,30.773502691896255" fill="none" stroke="white" stroke-width="2" stroke-linecap="square"/></g><g transform="translate(102.92304845413263 0)"><line x1="0" y1="0" x2="0" y2="50" stroke="white" stroke-width="2"/></g><g transform="translate(47.282032302755084 0)"><ellipse cx="22" cy="25" rx="21" ry="21" fill="hsl(206, 60%, 20%)" stroke="white" stroke-width="2"/><text x="0" y="0" fill="white" font-family="Arial, Helvetica, sans-serif" font-size="18px" font-weight="normal" font-style="normal" dominant-baseline="middle" text-anchor="middle" transform="translate(22 25)">2</text></g></g></g><g transform="translate(0 554.7668598600565)"><rect x="1" y="11" width="510.8012701892219" height="48" fill="black" stroke="white" stroke-width="2" rx="0"/><text x="256.40063509461095" y="35" fill="white" dominant-baseline="middle" text-anchor="middle" font-family="Arial, Helvetica, sans-serif" font-size="24px" font-weight="normal" font-style="normal" width="512.8012701892219">???</text></g><g transform="translate(0 644.7668598600565)"><g><line x1="0" y1="25" x2="260" y2="25" stroke="white" stroke-width="2"/><polyline points="250,19.226497308103745 260,25 250,30.773502691896255" fill="none" stroke="white" stroke-width="2" stroke-linecap="square"/></g><g transform="translate(209 0)"><line x1="0" y1="0" x2="0" y2="50" stroke="white" stroke-width="2"/></g><g transform="translate(158 0)"><ellipse cx="22" cy="25" rx="21" ry="21" fill="hsl(52, 60%, 20%)" stroke="white" stroke-width="2"/><text x="0" y="0" fill="white" font-family="Arial, Helvetica, sans-serif" font-size="18px" font-weight="normal" font-style="normal" dominant-baseline="middle" text-anchor="middle" transform="translate(22 25)">[6,9]</text></g><g transform="translate(98 0)"><ellipse cx="22" cy="25" rx="21" ry="21" fill="hsl(252, 60%, 20%)" stroke="white" stroke-width="2"/><text x="0" y="0" fill="white" font-family="Arial, Helvetica, sans-serif" font-size="18px" font-weight="normal" font-style="normal" dominant-baseline="middle" text-anchor="middle" transform="translate(22 25)">[4,6]</text></g><g transform="translate(38 0)"><ellipse cx="22" cy="25" rx="21" ry="21" fill="hsl(200, 60%, 20%)" stroke="white" stroke-width="2"/><text x="0" y="0" fill="white" font-family="Arial, Helvetica, sans-serif" font-size="18px" font-weight="normal" font-style="normal" dominant-baseline="middle" text-anchor="middle" transform="translate(22 25)">[2,3]</text></g></g></g></svg>